<?xml version="1.0" encoding="UTF-8" standalone="no"?>
<!-- Created with Inkscape (http://www.inkscape.org/) -->

<svg
   xmlns:dc="http://purl.org/dc/elements/1.1/"
   xmlns:cc="http://creativecommons.org/ns#"
   xmlns:rdf="http://www.w3.org/1999/02/22-rdf-syntax-ns#"
   xmlns:svg="http://www.w3.org/2000/svg"
   xmlns="http://www.w3.org/2000/svg"
   xmlns:sodipodi="http://sodipodi.sourceforge.net/DTD/sodipodi-0.dtd"
   xmlns:inkscape="http://www.inkscape.org/namespaces/inkscape"
   width="744.09448819"
   height="1052.3622047"
   id="svg6403"
   version="1.1"
   inkscape:version="0.47 r22583"
   sodipodi:docname="New document 15">
  <defs
     id="defs6405">
    <inkscape:perspective
       sodipodi:type="inkscape:persp3d"
       inkscape:vp_x="0 : 526.18109 : 1"
       inkscape:vp_y="0 : 1000 : 0"
       inkscape:vp_z="744.09448 : 526.18109 : 1"
       inkscape:persp3d-origin="372.04724 : 350.78739 : 1"
       id="perspective6411" />
  </defs>
  <sodipodi:namedview
     id="base"
     pagecolor="#ffffff"
     bordercolor="#666666"
     borderopacity="1.0"
     inkscape:pageopacity="0.0"
     inkscape:pageshadow="2"
     inkscape:zoom="1"
     inkscape:cx="196"
     inkscape:cy="520"
     inkscape:document-units="px"
     inkscape:current-layer="layer1"
     showgrid="true"
     inkscape:snap-grids="true"
     inkscape:window-width="967"
     inkscape:window-height="743"
     inkscape:window-x="165"
     inkscape:window-y="45"
     inkscape:window-maximized="0">
    <inkscape:grid
       type="xygrid"
       id="grid6415" />
  </sodipodi:namedview>
  <metadata
     id="metadata6408">
    <rdf:RDF>
      <cc:Work
         rdf:about="">
        <dc:format>image/svg+xml</dc:format>
        <dc:type
           rdf:resource="http://purl.org/dc/dcmitype/StillImage" />
        <dc:title></dc:title>
      </cc:Work>
    </rdf:RDF>
  </metadata>
  <g
     inkscape:label="Layer 1"
     inkscape:groupmode="layer"
     id="layer1">
    <path
       style="fill:none;stroke:#000000;stroke-width:1px;stroke-linecap:butt;stroke-linejoin:miter;stroke-opacity:1"
       d="m 320,582.36218 30,0 60,-10 -20,20 -40,10 4,40 c 2.34533,23.45326 -7.77553,46.73413 -4,70 1.19393,7.35732 10,16 10,16 l -50,0 c 0,0 8.80607,-8.64268 10,-16 3.77553,-23.26587 -6.34533,-46.54674 -4,-70 l 4,-40 -40,-10 -20,-20 60,10 z"
       id="path6413"
       sodipodi:nodetypes="cccccssccsscccc" />
    <path
       style="fill:#b3b3b3;stroke:#333333;stroke-width:2;stroke-linecap:butt;stroke-linejoin:miter;stroke-opacity:1;stroke-miterlimit:4;stroke-dasharray:none"
       d="m 320,582.36218 -12,-200 26,-40 28,40 -12,200"
       id="path6417"
       sodipodi:nodetypes="ccccc" />
    <path
       style="fill:#803300;fill-opacity:1;stroke:#2b1100;stroke-width:4;stroke-linejoin:round;stroke-miterlimit:4;stroke-opacity:1;stroke-dasharray:none;stroke-linecap:round;marker-start:none;marker-mid:none;"
       d="m 314.96573,724.11218 c 5.16541,-6.11901 6.38837,-10.29266 6.41231,-21.88363 0.0121,-5.84849 -0.84565,-17.32349 -1.90607,-25.5 -3.27319,-25.23844 -3.28893,-25.91129 -1.13121,-48.36637 1.13627,-11.825 2.26933,-22.69324 2.51792,-24.15164 l 0.45198,-2.65165 -19.70533,-4.8255 -19.70533,-4.82551 -8.74277,-8.44674 c -4.80853,-4.64571 -8.581,-8.60852 -8.38328,-8.80625 0.19773,-0.19772 12.53973,1.68053 27.42667,4.1739 24.06273,4.03019 28.80233,4.53339 42.69938,4.53339 13.89799,0 18.63626,-0.50313 42.71039,-4.53524 14.893,-2.49438 27.47073,-4.40438 27.95052,-4.24445 0.47978,0.15992 -2.84764,3.97632 -7.39429,8.48089 l -8.26662,8.19011 -19.81823,4.95591 c -10.90003,2.72575 -20.08389,5.22157 -20.40858,5.54626 -0.32469,0.32469 0.46448,11.55855 1.75372,24.96413 l 2.34405,24.3738 -2.81506,22.76196 c -2.04176,16.50928 -2.67923,25.35873 -2.3206,32.21511 0.47498,9.08074 0.65537,9.68634 4.57903,15.37234 l 4.08457,5.91918 -22.53834,0 -22.53835,0 2.74352,-3.25 0,0 z"
       id="path6419" />
    <path
       style="fill:#e6e6e6;stroke:#1a1a1a;stroke-width:1px;stroke-linecap:butt;stroke-linejoin:miter;stroke-opacity:1"
       d="m 322,582.36218 12,0 0,-238 -26,40 14,198 z"
       id="path7371"
       sodipodi:nodetypes="ccccc" />
  </g>
</svg>
