<?xml version="1.0" encoding="UTF-8" standalone="no"?>
<!-- Created with Inkscape (http://www.inkscape.org/) -->

<svg
   xmlns:dc="http://purl.org/dc/elements/1.1/"
   xmlns:cc="http://creativecommons.org/ns#"
   xmlns:rdf="http://www.w3.org/1999/02/22-rdf-syntax-ns#"
   xmlns:svg="http://www.w3.org/2000/svg"
   xmlns="http://www.w3.org/2000/svg"
   xmlns:sodipodi="http://sodipodi.sourceforge.net/DTD/sodipodi-0.dtd"
   xmlns:inkscape="http://www.inkscape.org/namespaces/inkscape"
   width="744.09448819"
   height="1052.3622047"
   id="svg2"
   version="1.1"
   inkscape:version="0.47 r22583"
   sodipodi:docname="New document 1">
  <defs
     id="defs4">
    <inkscape:perspective
       sodipodi:type="inkscape:persp3d"
       inkscape:vp_x="0 : 526.18109 : 1"
       inkscape:vp_y="0 : 1000 : 0"
       inkscape:vp_z="744.09448 : 526.18109 : 1"
       inkscape:persp3d-origin="372.04724 : 350.78739 : 1"
       id="perspective10" />
  </defs>
  <sodipodi:namedview
     id="base"
     pagecolor="#ffffff"
     bordercolor="#666666"
     borderopacity="1.0"
     inkscape:pageopacity="0.0"
     inkscape:pageshadow="2"
     inkscape:zoom="1"
     inkscape:cx="378.21037"
     inkscape:cy="624.65697"
     inkscape:document-units="px"
     inkscape:current-layer="layer1"
     showgrid="false"
     inkscape:snap-bbox="false"
     inkscape:snap-nodes="false"
     inkscape:snap-global="true"
     inkscape:window-width="1440"
     inkscape:window-height="825"
     inkscape:window-x="0"
     inkscape:window-y="24"
     inkscape:window-maximized="1" />
  <metadata
     id="metadata7">
    <rdf:RDF>
      <cc:Work
         rdf:about="">
        <dc:format>image/svg+xml</dc:format>
        <dc:type
           rdf:resource="http://purl.org/dc/dcmitype/StillImage" />
        <dc:title></dc:title>
      </cc:Work>
    </rdf:RDF>
  </metadata>
  <g
     inkscape:label="Layer 1"
     inkscape:groupmode="layer"
     id="layer1">
    <rect
       style="fill:#000000;stroke:#ffffff"
       id="rect6298"
       width="556"
       height="568"
       x="124"
       y="147.36218" />
    <path
       style="fill:none;stroke:#000000;stroke-width:1px;stroke-linecap:butt;stroke-linejoin:miter;stroke-opacity:1"
       d="m 334,278.36218 c -0.29814,-0.59628 0.29814,-1.40371 0,-2 -0.21082,-0.42163 -0.78918,-0.57836 -1,-1 -0.14907,-0.29814 0.14907,-0.70185 0,-1 -0.21082,-0.42163 -0.78918,-0.57836 -1,-1 -0.29814,-0.59628 0.29814,-1.40371 0,-2 -2.08088,-4.16176 0.069,1.06904 -2,-1 -0.2357,-0.2357 0.10541,-0.68377 0,-1 -0.4714,-1.41421 -1.5286,-2.58578 -2,-4 -0.10541,-0.31623 0.2357,-0.7643 0,-1 -0.2357,-0.2357 -0.7643,0.2357 -1,0 -0.4714,-0.4714 0.21082,-1.36754 0,-2 -0.4714,-1.41421 -1.5286,-2.58578 -2,-4 -0.21082,-0.63245 0.4714,-1.52859 0,-2 -0.2357,-0.2357 -0.7643,0.2357 -1,0 -0.2357,-0.2357 0.14907,-0.70185 0,-1 -0.21082,-0.42163 -0.78918,-0.57836 -1,-1 -0.14907,-0.29814 0.14907,-0.70185 0,-1 -0.21082,-0.42163 -0.78918,-0.57836 -1,-1 -0.14907,-0.29814 0.2357,-0.7643 0,-1 -0.2357,-0.2357 -0.7643,0.2357 -1,0 -0.4714,-0.4714 0.4714,-1.52859 0,-2 -0.2357,-0.2357 -0.7643,0.2357 -1,0 -0.2357,-0.2357 0.14907,-0.70185 0,-1 -0.21082,-0.42163 -0.78918,-0.57836 -1,-1 -0.29814,-0.59628 0.4714,-1.52859 0,-2 -0.2357,-0.2357 -0.7643,0.2357 -1,0 -0.4714,-0.4714 0.4714,-1.52859 0,-2 -0.2357,-0.2357 -0.85093,0.29815 -1,0 -0.29919,-0.59838 0.31163,-5.37674 0,-6 -0.21082,-0.42163 -0.78918,-0.57836 -1,-1 -0.31426,-0.62852 0.31426,-3.37148 0,-4 -0.21082,-0.42163 -0.78918,-0.57836 -1,-1 -0.26439,-0.52877 0.1218,-3.51281 0,-4 -0.18078,-0.7231 -0.81922,-1.2769 -1,-2 -0.16169,-0.64676 0,-1.33333 0,-2 0,-1.16717 0.19504,-5.21983 0,-6 -0.18078,-0.7231 -0.7643,-1.29289 -1,-2 -0.18807,-0.5642 0,-2.34289 0,-3 0,-2.33333 0,-4.66666 0,-7 0,-0.36723 -0.0402,-3.95976 0,-4 0.2357,-0.2357 0.7643,0.2357 1,0 0.67933,-0.67932 -1.02248,-1.98876 1,-3 0.26294,-0.13147 3.47708,0 4,0 2,0 4,0 6,0 1.33333,0 2.66667,0 4,0 0.66667,0 1.35324,0.16169 2,0 0.7231,-0.18077 1.29289,-0.7643 2,-1 0.94868,-0.31623 2.01942,0.19612 3,0 1.03362,-0.20672 1.9565,-0.85093 3,-1 1.31993,-0.18856 2.67482,0.14724 4,0 1.68928,-0.18769 3.31072,-0.8123 5,-1 1.32518,-0.14724 2.66667,0 4,0 3,0 6,0 9,0 1.66667,0 3.3657,0.32686 5,0 0.73088,-0.14617 1.26214,-0.89459 2,-1 1.64992,-0.2357 3.33333,0 5,0 3.66667,0 7.33333,0 11,0 1,0 2.01361,0.1644 3,0 1.03975,-0.17329 1.96638,-0.79327 3,-1 1.30744,-0.26149 2.66667,0 4,0 2.33333,0 4.66667,0 7,0 0.66667,0 1.35324,0.16169 2,0 4.59628,-1.14907 0.22688,-1 3,-1 0.66667,0 1.33333,0 2,0 0.33333,0 0.7643,0.2357 1,0 0.2357,-0.2357 -0.2357,-0.7643 0,-1 0.2357,-0.2357 0.66667,0 1,0 0.33333,0 0.66667,0 1,0 2.66667,0 5.33333,0 8,0 1.33333,0 2.70648,-0.32338 4,0 0.45733,0.11434 0.57836,0.78918 1,1 0.39649,0.19825 2.79556,-0.20443 3,0 0.2357,0.2357 -0.2357,0.7643 0,1 0.2357,0.2357 0.7643,-0.2357 1,0 0.4714,0.47141 -0.29814,1.40372 0,2 0.21082,0.42164 0.78918,0.57837 1,1 0.4,0.8 -0.4,2.2 0,3 0.21082,0.42164 0.78918,0.57837 1,1 0.29814,0.59629 -0.29814,1.40372 0,2 0.21082,0.42164 0.78918,0.57837 1,1 0.13147,0.26294 0,3.47708 0,4 0,0.42067 0.14874,5.70253 0,6 -0.21082,0.42164 -0.78918,0.57837 -1,1 -0.29814,0.59629 0.29814,1.40372 0,2 -0.21082,0.42164 -0.78918,0.57837 -1,1 -0.19825,0.39649 0.20444,2.79557 0,3 -0.2357,0.2357 -0.7643,-0.2357 -1,0 -0.2138,0.2138 0.18378,3.44868 0,4 -0.2357,0.70711 -0.72318,1.30796 -1,2 -2.33868,0.52042 -0.61001,2.83002 -1,4 -0.2357,0.70711 -0.7643,1.2929 -1,2 -0.21082,0.63246 0.29814,1.40372 0,2 -0.21082,0.42164 -0.85093,0.55279 -1,1 -0.21082,0.63246 0.13074,1.34628 0,2 -1.04044,5.2022 -0.66667,1 -2,5 -0.21082,0.63246 0.29814,1.40372 0,2 -0.42164,0.84328 -1.70186,1.10558 -2,2 -0.21082,0.63246 0.21082,1.36755 0,2 -0.14907,0.44722 -0.78918,0.57837 -1,1 -0.14907,0.29815 0.0808,0.67662 0,1 -0.25565,1.02262 -0.60852,2.0213 -1,3 -0.27682,0.69205 -0.58655,1.37983 -1,2 -1.21982,1.82974 -1.27494,0.0998 -2,3 -0.16169,0.64676 0.29814,1.40372 0,2 -0.14907,0.29815 -0.7643,-0.2357 -1,0 -0.2357,0.2357 0.14907,0.70186 0,1 -0.21082,0.42164 -0.78918,0.57837 -1,1 -0.29814,0.59629 0.29814,1.40372 0,2 -0.21082,0.42164 -0.78918,0.57837 -1,1 -0.14907,0.29815 0.14907,0.70186 0,1 -0.21082,0.42164 -0.85093,0.55279 -1,1 -0.21082,0.63246 0.29814,1.40372 0,2 -0.14907,0.29815 -0.7643,-0.2357 -1,0 -0.2357,0.2357 0.14907,0.70186 0,1 -0.21082,0.42164 -0.78918,0.57837 -1,1 -0.14907,0.29815 0.14907,0.70186 0,1 -0.21082,0.42164 -0.78918,0.57837 -1,1 -0.14907,0.29815 0,0.66667 0,1 0,0.33334 0,0.66667 0,1 0,1.66667 0,3.33334 0,5"
       id="path6302" />
    <path
       style="fill:none;stroke:#ffffff;stroke-width:4;stroke-linecap:butt;stroke-linejoin:miter;stroke-opacity:1;stroke-miterlimit:4;stroke-dasharray:none"
       d="m 358,276.36218 -24,-78 88,-14 -12,81 1,36 76,12 18,66 83,-68 12,-26 27,-14 24,36 -37,25 -103,110 -45,-39 -13,64 18,107 145,-38 30,61 -17,15 -22,-28 -148,65 -66,-107 -96,16 25,85 -72,49 -14,-30 36,-34 -45,-108 118,-49 -15,-100 -78,12 -36,70 4,25 -20,23 -23,-2 -13,-19 23,-29 27,-120 96.5,-26 41.5,-2 6,-27 z"
       id="path6304"
       sodipodi:nodetypes="ccccccccccccccccccccccccccccccccccccccccc" />
  </g>
</svg>
